<?xml version="1.0" encoding="UTF-8"?>
<svg id="Layer_1" data-name="Layer 1" xmlns="http://www.w3.org/2000/svg" version="1.1" viewBox="0 0 512 512">
  <defs>
    <style>
      .cls-1 {
        fill: #e7236a;
      }

      .cls-1, .cls-2 {
        stroke-width: 0px;
      }

      .cls-2 {
        fill: #fff;
        fill-rule: evenodd;
      }
    </style>
  </defs>
  <path class="cls-1" d="M512,397.1c0,63.5-51.5,114.9-114.9,114.9H114.9c-63.4,0-114.9-51.5-114.9-114.9V114.9C0,51.5,51.5,0,114.9,0h282.2C460.5,0,512,51.5,512,114.9v282.2Z"/>
  <path class="cls-2" d="M299,164.7c8.6-.3,17.2-.1,25.8-.1h3.5v-44.7c-4.6-.5-9.4-1.1-14.2-1.3-8.8-.4-17.6-.8-26.5-.6-13.5.3-26.2,3.6-37.3,11.5-12.8,9.2-19.8,22.1-22.4,37.3-1.1,6.3-1.4,12.8-1.6,19.2-.2,10,0,20,0,30.1v3.8h-42.7v49.9h42.5v125.4h51.9v-125.3h42.4c2.2-16.6,4.3-33,6.5-50.1h-9.5c-12.1.1-39.7,0-39.7,0,0,0,.1-24.7.4-35.5.4-14.7,9.2-19.2,20.9-19.6Z"/>
</svg>