<?xml version="1.0" encoding="UTF-8"?>
<svg id="Layer_1" data-name="Layer 1" xmlns="http://www.w3.org/2000/svg" version="1.1" viewBox="0 0 300.4 119.3">
  <defs>
    <style>
      .cls-1 {
        fill: #e7236a;
      }

      .cls-1, .cls-2 {
        stroke-width: 0px;
      }

      .cls-2 {
        fill: #fff;
      }
    </style>
  </defs>
  <g>
    <g>
      <rect class="cls-1" x="2.5" y="61.2" width="56.1" height="56.1" rx="8.2" ry="8.2"/>
      <rect class="cls-1" x="62.2" y="61.2" width="56.1" height="56.1" rx="8.2" ry="8.2"/>
      <rect class="cls-1" x="121.8" y="61.2" width="56.1" height="56.1" rx="8.2" ry="8.2"/>
      <rect class="cls-1" x="181.5" y="61.2" width="56.1" height="56.1" rx="8.2" ry="8.2"/>
      <rect class="cls-1" x="241" y="61.2" width="56.1" height="56.1" rx="8.2" ry="8.2"/>
    </g>
    <path class="cls-2" d="M107,66.8c-3.1,0-5.6,2.5-5.6,5.6v11.2h-22.4v-11.2c0-3.1-2.5-5.6-5.6-5.6h0c-3.1,0-5.6,2.5-5.6,5.6v33.7c0,3.1,2.5,5.6,5.6,5.6s5.6-2.5,5.6-5.6v-11.2h22.4v11.2c0,3.1,2.5,5.6,5.6,5.6s5.6-2.5,5.6-5.6v-33.7c0-3.1-2.5-5.6-5.6-5.6Z"/>
    <path class="cls-2" d="M166.9,66.8h-34.1c-3,0-5.4,2.4-5.4,5.4v34.1c0,3,2.4,5.4,5.4,5.4h34.1c3,0,5.4-2.4,5.4-5.4v-34.1c0-3-2.4-5.4-5.4-5.4ZM161.1,100.4h-22.4v-22.4h22.4v22.4Z"/>
    <path class="cls-2" d="M226.6,66.8h-34.1c-3,0-5.4,2.4-5.4,5.4v34.1c0,3,2.4,5.4,5.4,5.4h34.1c3,0,5.4-2.4,5.4-5.4v-34.1c0-3-2.4-5.4-5.4-5.4ZM220.7,100.4h-22.4v-22.4h22.4v22.4Z"/>
    <path class="cls-2" d="M280.3,66.8h0s-11.2,13.6-11.2,13.6l-11.2-13.6h0s-5.6,0-5.6,0h-5.6v39.3c0,3.1,2.5,5.6,5.6,5.6s5.6-2.5,5.6-5.6v-21.6l3.8,4.6,3.1,3.8c2.2,2.7,6.4,2.7,8.6,0l6.9-8.4v21.6c0,3.1,2.5,5.6,5.6,5.6s5.6-2.5,5.6-5.6v-39.3h-11.2Z"/>
    <path class="cls-2" d="M31.5,66.8H8.1v44.9h33.7l11.2-11.2v-22.4l-11.2-11.2h-10.3ZM41.8,95.8l-4.6,4.6h-17.8v-22.4h17.8l4.6,4.6v13.1Z"/>
  </g>
  <g>
    <rect class="cls-1" x="2.5" y="2" width="56.1" height="56.1" rx="8.2" ry="8.2"/>
    <rect class="cls-1" x="62.2" y="2" width="56.1" height="56.1" rx="8.2" ry="8.2"/>
    <rect class="cls-1" x="121.8" y="2" width="56.1" height="56.1" rx="8.2" ry="8.2"/>
    <rect class="cls-1" x="181.5" y="2" width="56.1" height="56.1" rx="8.2" ry="8.2"/>
    <path class="cls-2" d="M31.5,7.6H8.1v44.9h33.7l11.2-11.2v-22.4l-11.2-11.2h-10.3ZM41.8,36.7l-4.6,4.6h-17.8v-22.4h17.8l4.6,4.6v13.1Z"/>
    <path class="cls-2" d="M107.5,7.6h-1c-2.8,0-5.1,2.3-5.1,5.1v11.7h-22.4v-11.7c0-2.8-2.3-5.1-5.1-5.1h-1c-2.8,0-5.1,2.3-5.1,5.1v34.6c0,2.8,2.3,5.1,5.1,5.1h1c2.8,0,5.1-2.3,5.1-5.1v-11.7h22.4v11.8c0,2.8,2.3,5.1,5.1,5.1h1.1c2.8,0,5.1-2.3,5.1-5.1V12.8c0-2.8-2.3-5.1-5.1-5.1Z"/>
    <path class="cls-2" d="M167,7.6h-34.3c-2.9,0-5.3,2.4-5.3,5.3v34.3c0,2.9,2.4,5.3,5.3,5.3h.7c2.9,0,5.3-2.4,5.3-5.3v-11.5h22.4v11.5c0,2.9,2.4,5.3,5.3,5.3h.7c2.9,0,5.3-2.4,5.3-5.3V12.9c0-2.9-2.4-5.3-5.3-5.3ZM161.1,24.5h-22.4v-5.6h22.4v5.6Z"/>
    <path class="cls-2" d="M226.5,7.6h-.3c-3,0-5.5,2.5-5.5,5.5v21.7l-22.4-27.2h0s-11.2,0-11.2,0v39.4c0,3,2.5,5.5,5.5,5.5h.3c3,0,5.5-2.5,5.5-5.5v-21.7l22.4,27.2h0s11.2,0,11.2,0V13.1c0-3-2.5-5.5-5.5-5.5Z"/>
  </g>
</svg>