<?xml version="1.0" encoding="UTF-8"?>
<svg id="Layer_1" data-name="Layer 1" xmlns="http://www.w3.org/2000/svg" version="1.1" viewBox="0 0 512 512">
  <defs>
    <style>
      .cls-1 {
        fill: #e7236a;
      }

      .cls-1, .cls-2 {
        stroke-width: 0px;
      }

      .cls-2 {
        fill: #fff;
      }
    </style>
  </defs>
  <path class="cls-1" d="M512,397.1c0,63.5-51.5,114.9-114.9,114.9H114.9c-63.4,0-114.9-51.5-114.9-114.9V114.9C0,51.5,51.5,0,114.9,0h282.2C460.5,0,512,51.5,512,114.9v282.2Z"/>
  <g>
    <path class="cls-2" d="M303.5,132.6h-94.8c-42,0-76.1,34.1-76.1,76.1v94.7c0,42,34,76,76.1,76h94.7c42,0,76-34,76-76v-94.7c0-42.1-33.9-76.1-75.9-76.1ZM355.8,294.3c0,33.9-27.5,61.4-61.4,61.4h-76.5c-33.9,0-61.4-27.5-61.4-61.4v-76.5c0-33.9,27.5-61.4,61.4-61.4h76.5c33.9,0,61.4,27.6,61.4,61.4v76.5Z"/>
    <path class="cls-2" d="M259.4,191.4c-35.9,0-65,29.1-65,65s29.1,65,65,65,65-29.1,65-65c0-35.9-29.2-65-65-65ZM259.4,295.5c-21.6,0-39.1-17.5-39.1-39.1s17.5-39.1,39.1-39.1,39.1,17.5,39.1,39.1c0,21.6-17.6,39.1-39.1,39.1Z"/>
    <path class="cls-2" d="M336.4,190.4c0,9.1-7.4,16.5-16.5,16.5s-16.5-7.4-16.5-16.5,7.4-16.6,16.5-16.6,16.5,7.4,16.5,16.6Z"/>
  </g>
</svg>