<?xml version="1.0" encoding="UTF-8"?>
<svg id="Layer_1" data-name="Layer 1" xmlns="http://www.w3.org/2000/svg" version="1.1" viewBox="0 0 512 512">
  <defs>
    <style>
      .cls-1 {
        fill: #fafafa;
        fill-rule: evenodd;
      }

      .cls-1, .cls-2 {
        stroke-width: 0px;
      }

      .cls-2 {
        fill: #e7236a;
      }
    </style>
  </defs>
  <path class="cls-2" d="M512,397.1c0,63.5-51.5,114.9-114.9,114.9H114.9c-63.4,0-114.9-51.5-114.9-114.9V114.9C0,51.5,51.5,0,114.9,0h282.2C460.5,0,512,51.5,512,114.9v282.2Z"/>
  <path class="cls-1" d="M154.1,152.1c.7,1,16.8,24.4,35.8,52.1,19,27.6,36.5,53.2,39,56.8,2.5,3.6,4.5,6.6,4.5,6.7s-.9,1.2-2,2.5c-1.1,1.3-4.3,5-7.1,8.2-2.8,3.2-7.4,8.6-10.3,12-2.9,3.4-8.1,9.4-11.4,13.3-3.4,3.9-9.4,10.9-13.4,15.6-12.4,14.5-14.2,16.5-23.7,27.6-5.1,5.9-9.9,11.5-10.8,12.5s-1.6,1.9-1.6,2,3.2.2,8.9.2h8.9l9.8-11.5c5.4-6.3,10.7-12.5,11.9-13.8,2.4-2.8,20.8-24.1,22.3-25.9.6-.7,1.4-1.7,1.9-2.2.5-.5,4.1-4.7,8-9.3,4-4.6,7.3-8.5,7.4-8.6.1-.1,2.2-2.6,4.7-5.4,2.4-2.8,4.5-5.2,4.6-5.2s12.6,18,27.7,40.1c15.1,22,27.8,40.5,28.1,41l.6.9h30.7c25.2,0,30.7,0,30.6-.3-.1-.3-14.8-21.7-52.5-76.6-27.2-39.5-30.8-44.8-30.7-45.1.1-.3,3.8-4.6,28.1-32.9,4.2-4.9,9.9-11.5,12.8-14.9s5.7-6.7,6.4-7.4c.7-.8,4.2-4.9,7.8-9.1,3.6-4.2,9.8-11.4,13.7-16,3.9-4.5,7.3-8.4,7.4-8.7.3-.4-.2-.4-8.8-.4h-9.1l-4,4.7c-5.4,6.3-15.1,17.6-17.9,20.8-1.2,1.4-2.7,3.2-3.4,3.9-.6.8-1.9,2.2-2.8,3.3s-5.5,6.3-10.1,11.8c-4.7,5.4-8.5,9.9-8.6,10,0,0-1.1,1.2-2.2,2.6-2,2.4-4,4.7-13.4,15.5-4.1,4.7-4.3,5-4.6,4.5-.2-.3-12.2-17.7-26.7-38.8l-26.3-38.3h-30.8s-30.8,0-30.8,0l1.3,1.8M178.1,164.7c.2.4,6,8.6,12.8,18.3,12.9,18.5,63.6,91,96.2,137.7,10.4,14.9,19.1,27.2,19.2,27.4.2.2,3.3.3,14.2.2h13.9c0,0-36.3-52.1-36.3-52.1-20-28.6-48.9-70-64.3-92.1l-28-40h-14c0,0-14-.1-14-.1l.4.6"/>
</svg>