<?xml version="1.0" encoding="UTF-8"?>
<svg id="Layer_1" data-name="Layer 1" xmlns="http://www.w3.org/2000/svg" version="1.1" viewBox="0 0 512 512">
  <defs>
    <style>
      .cls-1 {
        fill: #e7236a;
      }

      .cls-1, .cls-2 {
        stroke-width: 0px;
      }

      .cls-2 {
        fill: #fff;
      }
    </style>
  </defs>
  <path class="cls-1" d="M512,397.1c0,63.5-51.5,114.9-114.9,114.9H114.9c-63.4,0-114.9-51.5-114.9-114.9V114.9C0,51.5,51.5,0,114.9,0h282.2C460.5,0,512,51.5,512,114.9v282.2Z"/>
  <g>
    <path class="cls-2" d="M412.2,177.5c-3.7-14.1-14.8-25.1-28.8-28.8-25.4-6.8-127.3-6.8-127.3-6.8,0,0-101.9,0-127.3,6.8-14,3.7-25.1,14.8-28.8,28.8-6.8,25.4-6.8,78.5-6.8,78.5,0,0,0,53.1,6.8,78.5,3.7,14.1,14.8,25.1,28.8,28.8,25.4,6.8,127.3,6.8,127.3,6.8,0,0,101.9,0,127.3-6.8,14.1-3.7,25.1-14.8,28.8-28.8,6.8-25.4,6.8-78.5,6.8-78.5,0,0,0-53.1-6.8-78.5h0Z"/>
    <path class="cls-1" d="M223.4,304.9l84.7-48.9-84.7-48.9v97.8h0Z"/>
  </g>
</svg>